<?xml version="1.0" encoding="utf-8"?>
<!-- Generator: Adobe Illustrator 27.6.1, SVG Export Plug-In . SVG Version: 6.00 Build 0)  -->
<svg version="1.1" id="Ebene_1" xmlns="http://www.w3.org/2000/svg" xmlns:xlink="http://www.w3.org/1999/xlink" x="0px" y="0px"
	 viewBox="0 0 1366 768" style="enable-background:new 0 0 1366 768;" xml:space="preserve">
<style type="text/css">
	.st0{fill:#273067;}
</style>
<g>
	<g>
		<path class="st0" d="M212.89,431.76c-8.8,8.69-20.88,13.03-36.25,13.03H98.81V189.55h77.84c15.59,0,27.73,4.4,36.41,13.2
			c8.69,8.8,13.03,20.55,13.03,35.24v158.69C226.09,411.38,221.69,423.07,212.89,431.76z M187.67,243.41
			c0-6.93-2.01-12.24-6.01-15.92c-4.01-3.68-9.47-5.53-16.37-5.53h-28.4v190.42h27.39c7.79,0,13.64-1.95,17.54-5.87
			c3.89-3.91,5.85-9.22,5.85-15.93V243.41z"/>
		<path class="st0" d="M310.37,444.78v-5.68l-39.42,5.01c-2.45,0.45-4.51,0.78-6.18,1c-1.67,0.22-3.4,0.33-5.18,0.33
			c-13.59,0-20.38-6.68-20.38-20.04v-59.47c0-13.58,7.02-20.38,21.05-20.38h50.45v-37.75h-35.75v23.38h-33.74v-30.73
			c0-13.58,7.02-20.38,21.05-20.38h63.14c13.81,0,20.71,6.8,20.71,20.38v144.32H310.37z M310.71,370.95h-35.75v45.43l35.75-1.34
			V370.95z"/>
		<path class="st0" d="M392.98,444.78c-13.94,0-20.9-6.79-20.9-20.38V311.82h-17.71v-31.74h17.71v-44.77h37.41v44.77h24.05v31.74
			h-24.05v101.22h25.05v31.74H392.98z"/>
		<path class="st0" d="M514.89,444.78v-5.68l-39.42,5.01c-2.45,0.45-4.51,0.78-6.18,1c-1.67,0.22-3.4,0.33-5.18,0.33
			c-13.59,0-20.38-6.68-20.38-20.04v-59.47c0-13.58,7.02-20.38,21.04-20.38h50.45v-37.75h-35.75v23.38h-33.74v-30.73
			c0-13.58,7.02-20.38,21.05-20.38h63.14c13.81,0,20.71,6.8,20.71,20.38v144.32H514.89z M515.22,370.95h-35.75v45.43l35.75-1.34
			V370.95z"/>
		<path class="st0" d="M683.99,444.78h-81.56V189.5h22.68v235.22h58.89V444.78z"/>
		<path class="st0" d="M785.55,444.78h-21.37v-4.4c-8.59,1.2-17.18,2.34-25.77,3.43c-10.66,1.3-19.2,1.95-25.61,1.95
			c-11.85,0-17.78-5.87-17.78-17.62v-57.91c0-12.18,6.14-18.27,18.43-18.27h51.06v-47.79h-46.65v27.08h-21.04V304.5
			c0-12.29,6.09-18.43,18.27-18.43h52.2c12.18,0,18.27,6.15,18.27,18.43V444.78z M764.51,425.05v-56.11h-48.45v57.09L764.51,425.05z
			"/>
		<path class="st0" d="M896.63,410.69c0,9.79-3.21,17.92-9.62,24.39c-6.42,6.47-14.46,9.71-24.14,9.71h-57.42V189.5h21.7v100.97
			c8.59-1.09,17.18-2.17,25.77-3.26c10.87-1.41,19.41-2.12,25.61-2.12c12.07,0,18.11,5.93,18.11,17.78V410.69z M874.93,407.43
			V305.48l-47.79,1.3V425.7h30.01C869.01,425.7,874.93,419.61,874.93,407.43z"/>
		<path class="st0" d="M1059.52,444.78h-22.67V322.12h-61.5v122.67h-22.67V189.5h22.67v112.23h61.5V189.5h22.67V444.78z"/>
		<path class="st0" d="M1170.56,426.35c0,12.29-6.09,18.43-18.27,18.43h-52.2c-12.18,0-18.27-6.14-18.27-18.43V304.5
			c0-12.29,6.09-18.43,18.27-18.43h52.2c12.18,0,18.27,6.15,18.27,18.43v57.09l-7.34,7.67h-60.36v57.42h46.65v-29.04h21.04V426.35z
			 M1149.52,351.97v-47.79h-46.65v47.79H1149.52z"/>
		<path class="st0" d="M1212.45,444.78h-21.37V189.5h21.37V444.78z"/>
		<path class="st0" d="M1261.6,444.78h-21.37V189.5h21.37V444.78z"/>
	</g>
</g>
<g>
	<g>
		<path class="st0" d="M119.8,560.92h-6.57l-2.62-16.58H95.79l-2.62,16.58h-6.38v-0.19l13.29-74.55h6.53L119.8,560.92z
			 M109.75,538.48l-6.53-40.4l-6.57,40.4H109.75z"/>
		<path class="st0" d="M158.62,550.96c0,2.86-0.94,5.23-2.81,7.12c-1.87,1.89-4.23,2.83-7.05,2.83h-10.43v17.58h-6.34v-63.93h6.34
			v1.28c2.51-0.32,5.02-0.63,7.53-0.95c3.18-0.41,5.67-0.62,7.48-0.62c3.52,0,5.29,1.73,5.29,5.19V550.96z M152.29,550.01v-29.77
			l-13.96,0.38v34.73h8.77C150.56,555.35,152.29,553.57,152.29,550.01z"/>
		<path class="st0" d="M199.4,550.96c0,2.86-0.94,5.23-2.81,7.12c-1.87,1.89-4.23,2.83-7.05,2.83h-10.43v17.58h-6.34v-63.93h6.34
			v1.28c2.51-0.32,5.02-0.63,7.53-0.95c3.18-0.41,5.67-0.62,7.48-0.62c3.52,0,5.29,1.73,5.29,5.19V550.96z M193.06,550.01v-29.77
			l-13.96,0.38v34.73h8.77C191.33,555.35,193.06,553.57,193.06,550.01z"/>
		<path class="st0" d="M220.17,560.92h-6.24v-74.55h6.24V560.92z"/>
		<path class="st0" d="M241.65,504.42h-6.43v-8h6.43V504.42z M241.56,560.92h-6.24v-46.35h6.24V560.92z"/>
		<path class="st0" d="M282.24,555.54c0,3.59-1.78,5.38-5.34,5.38h-15.24c-3.56,0-5.34-1.79-5.34-5.38v-35.58
			c0-3.59,1.78-5.38,5.34-5.38h15.24c3.56,0,5.34,1.79,5.34,5.38v16.67l-2.14,2.24h-17.63v16.77h13.62v-8.48h6.15V555.54z
			 M276.09,533.81v-13.96h-13.62v13.96H276.09z"/>
		<path class="st0" d="M323.06,560.92h-6.29v-1.28c-6.8,1.05-10.56,1.57-11.29,1.57c-2.7,0-4.88-0.91-6.53-2.74
			c-1.65-1.82-2.48-4.1-2.48-6.84v-27.1c0-2.86,0.94-5.23,2.81-7.12c1.87-1.89,4.22-2.83,7.05-2.83h10.43v-28.2h6.29V560.92z
			 M316.77,555.16v-35.02h-8.77c-3.49,0-5.24,1.8-5.24,5.38v24.77c0,3.56,1.75,5.33,5.24,5.33
			C308.83,555.63,311.76,555.47,316.77,555.16z"/>
		<path class="st0" d="M393.09,560.92h-6.95L372.27,521l0.9-1.33h11.81v-27.44h-17.01v68.69h-6.62v-74.55h24.96
			c1.56,0,2.83,0.49,3.81,1.48c0.99,0.98,1.48,2.25,1.48,3.81v28.3c0,3.59-2.41,5.38-7.24,5.38c-0.48,0-1.18-0.02-2.1-0.07
			c-0.92-0.05-1.59-0.07-2-0.07C384.56,537.07,388.83,548.98,393.09,560.92z"/>
		<path class="st0" d="M432.15,555.54c0,3.59-1.78,5.38-5.33,5.38h-15.24c-3.56,0-5.34-1.79-5.34-5.38v-35.58
			c0-3.59,1.78-5.38,5.34-5.38h15.24c3.56,0,5.33,1.79,5.33,5.38v16.67l-2.14,2.24h-17.62v16.77H426v-8.48h6.14V555.54z M426,533.81
			v-13.96h-13.62v13.96H426z"/>
		<path class="st0" d="M471.59,555.54c0,3.59-1.79,5.38-5.38,5.38h-14.53c-3.59,0-5.38-1.79-5.38-5.38v-10.53h6.24v10.43h12.82
			v-9.24l-16.58-13.58c-1.59-1.27-2.38-2.92-2.38-4.95v-7.72c0-3.59,1.79-5.38,5.38-5.38h14.34c3.59,0,5.38,1.79,5.38,5.38v9.24
			h-6.14v-9.15h-12.82v8.1l16.72,13.57c1.55,1.24,2.33,2.92,2.33,5.05V555.54z"/>
		<path class="st0" d="M511.56,555.54c0,3.59-1.78,5.38-5.34,5.38h-15.24c-3.56,0-5.33-1.79-5.33-5.38v-35.58
			c0-3.59,1.78-5.38,5.33-5.38h15.24c3.56,0,5.34,1.79,5.34,5.38v16.67l-2.14,2.24h-17.63v16.77h13.62v-8.48h6.15V555.54z
			 M505.41,533.81v-13.96h-13.62v13.96H505.41z"/>
		<path class="st0" d="M552.24,560.92H546v-1.28c-2.51,0.35-5.02,0.68-7.53,1c-3.11,0.38-5.61,0.57-7.48,0.57
			c-3.46,0-5.19-1.71-5.19-5.15v-16.91c0-3.56,1.79-5.34,5.38-5.34h14.91v-13.96h-13.62v7.91h-6.14v-7.81
			c0-3.59,1.78-5.38,5.33-5.38h15.24c3.56,0,5.33,1.79,5.33,5.38V560.92z M546.09,555.16v-16.39h-14.15v16.67L546.09,555.16z"/>
		<path class="st0" d="M590.87,529.81h-6.24v-9.57l-11.67,0.38v40.3h-6.34v-46.35h6.34v1.28c2.1-0.32,4.21-0.65,6.34-1
			c2.54-0.38,4.65-0.57,6.34-0.57c3.49,0,5.24,1.73,5.24,5.19V529.81z"/>
		<path class="st0" d="M628.65,555.54c0,3.59-1.78,5.38-5.33,5.38h-15.05c-3.56,0-5.33-1.79-5.33-5.38v-35.58
			c0-3.59,1.78-5.38,5.33-5.38h15.05c3.56,0,5.33,1.79,5.33,5.38v9.24h-6.24v-9.05h-13.15v35.21h13.15v-10.34h6.24V555.54z"/>
		<path class="st0" d="M669.57,560.92h-6.34v-40.68l-13.96,0.38v40.3h-6.34v-74.55h6.34v29.49c2.51-0.32,5.02-0.63,7.52-0.95
			c3.18-0.41,5.67-0.62,7.48-0.62c3.52,0,5.29,1.73,5.29,5.19V560.92z"/>
		<path class="st0" d="M733.11,560.92h-6.24v-1.28c-2.51,0.35-5.02,0.68-7.53,1c-3.11,0.38-5.61,0.57-7.48,0.57
			c-3.46,0-5.19-1.71-5.19-5.15v-16.91c0-3.56,1.79-5.34,5.38-5.34h14.91v-13.96h-13.62v7.91h-6.14v-7.81
			c0-3.59,1.78-5.38,5.33-5.38h15.24c3.56,0,5.33,1.79,5.33,5.38V560.92z M726.97,555.16v-16.39h-14.15v16.67L726.97,555.16z"/>
		<path class="st0" d="M774.13,560.92h-6.34v-40.68l-13.96,0.38v40.3h-6.34v-46.35h6.34v1.28c2.48-0.32,4.97-0.65,7.48-1
			c3.05-0.38,5.56-0.57,7.53-0.57c3.53,0,5.29,1.73,5.29,5.19V560.92z"/>
		<path class="st0" d="M814.72,560.92h-6.29v-1.28c-6.8,1.05-10.56,1.57-11.29,1.57c-2.7,0-4.88-0.91-6.53-2.74
			c-1.65-1.82-2.48-4.1-2.48-6.84v-27.1c0-2.86,0.93-5.23,2.81-7.12c1.87-1.89,4.22-2.83,7.05-2.83h10.43v-28.2h6.29V560.92z
			 M808.43,555.16v-35.02h-8.76c-3.5,0-5.24,1.8-5.24,5.38v24.77c0,3.56,1.74,5.33,5.24,5.33
			C800.49,555.63,803.41,555.47,808.43,555.16z"/>
		<path class="st0" d="M883.74,547.44c0,3.94-1.29,7.17-3.88,9.69c-2.59,2.52-5.85,3.79-9.79,3.79h-17.05v-74.55h17.05
			c3.97,0,7.24,1.26,9.81,3.79c2.57,2.52,3.86,5.76,3.86,9.7V547.44z M877.12,546.77v-46.35c0-2.45-0.77-4.42-2.31-5.93
			c-1.54-1.51-3.54-2.26-5.98-2.26h-9.19v62.83h8.81c2.57,0,4.66-0.74,6.27-2.22C876.32,551.37,877.12,549.34,877.12,546.77z"/>
		<path class="st0" d="M924.52,555.54c0,3.59-1.78,5.38-5.33,5.38h-15.25c-3.56,0-5.33-1.79-5.33-5.38v-35.58
			c0-3.59,1.78-5.38,5.33-5.38h15.25c3.56,0,5.33,1.79,5.33,5.38v16.67l-2.14,2.24h-17.63v16.77h13.63v-8.48h6.14V555.54z
			 M918.38,533.81v-13.96h-13.63v13.96H918.38z"/>
		<path class="st0" d="M965.1,514.57l-11.48,46.45h-5.76l-11.53-46.45h6.53l7.91,36.49l8.01-36.49H965.1z"/>
		<path class="st0" d="M1002.78,555.54c0,3.59-1.78,5.38-5.33,5.38H982.2c-3.56,0-5.33-1.79-5.33-5.38v-35.58
			c0-3.59,1.78-5.38,5.33-5.38h15.25c3.56,0,5.33,1.79,5.33,5.38v16.67l-2.14,2.24h-17.63v16.77h13.63v-8.48h6.14V555.54z
			 M996.64,533.81v-13.96h-13.63v13.96H996.64z"/>
		<path class="st0" d="M1023.89,560.92h-6.24v-74.55h6.24V560.92z"/>
		<path class="st0" d="M1065.28,555.54c0,3.59-1.79,5.38-5.38,5.38h-15.91c-3.56,0-5.33-1.79-5.33-5.38v-35.58
			c0-3.59,1.78-5.38,5.33-5.38h15.91c3.59,0,5.38,1.79,5.38,5.38V555.54z M1058.94,555.35v-35.21h-13.96v35.21H1058.94z"/>
		<path class="st0" d="M1106.25,550.96c0,2.86-0.93,5.23-2.81,7.12c-1.87,1.89-4.22,2.83-7.05,2.83h-10.43v17.58h-6.34v-63.93h6.34
			v1.28c2.51-0.32,5.02-0.63,7.53-0.95c3.18-0.41,5.67-0.62,7.48-0.62c3.53,0,5.29,1.73,5.29,5.19V550.96z M1099.91,550.01v-29.77
			l-13.96,0.38v34.73h8.76C1098.18,555.35,1099.91,553.57,1099.91,550.01z"/>
		<path class="st0" d="M1166.98,560.92h-6.33v-40.68l-13.82,0.38v40.3h-6.29v-40.68l-13.82,0.38v40.3h-6.34v-46.35h6.34v1.28
			c2.48-0.32,4.95-0.65,7.43-1c3.02-0.38,5.51-0.57,7.48-0.57c1.94,0,3.36,0.59,4.29,1.76c2.67-0.35,5.32-0.72,7.95-1.1
			c3.46-0.44,6.08-0.67,7.86-0.67c3.49,0,5.24,1.73,5.24,5.19V560.92z"/>
		<path class="st0" d="M1207.19,555.54c0,3.59-1.78,5.38-5.33,5.38h-15.25c-3.56,0-5.33-1.79-5.33-5.38v-35.58
			c0-3.59,1.78-5.38,5.33-5.38h15.25c3.56,0,5.33,1.79,5.33,5.38v16.67l-2.14,2.24h-17.63v16.77h13.63v-8.48h6.14V555.54z
			 M1201.04,533.81v-13.96h-13.63v13.96H1201.04z"/>
		<path class="st0" d="M1248.3,560.92h-6.33v-40.68l-13.96,0.38v40.3h-6.34v-46.35h6.34v1.28c2.48-0.32,4.97-0.65,7.48-1
			c3.05-0.38,5.56-0.57,7.53-0.57c3.53,0,5.29,1.73,5.29,5.19V560.92z"/>
		<path class="st0" d="M1279.21,560.92h-9c-3.56,0-5.33-1.79-5.33-5.38v-35.4h-5.58v-5.57h5.58v-14.43h6.24v14.43h8.1v5.57h-8.1
			v35.21h8.1V560.92z"/>
	</g>
</g>
</svg>
