<?xml version="1.0" encoding="UTF-8"?>
<svg xmlns="http://www.w3.org/2000/svg" viewBox="0 0 192 192" width="192" height="192">
  <path d="M141.537 88.988a66.667 66.667 0 0 0-2.518-1.143c-1.482-27.307-16.403-42.94-41.457-43.1h-.34c-14.986 0-27.449 6.396-35.12 18.036l13.779 9.452c5.73-8.695 14.724-10.548 21.348-10.548h.229c8.249.053 14.474 2.452 18.503 7.129 2.932 3.405 4.893 8.11 5.864 14.05-7.314-1.243-15.224-1.626-23.68-1.14-23.82 1.371-39.134 15.24-38.333 34.71.416 10.13 5.365 18.853 13.932 24.568 7.236 4.824 16.564 7.212 26.258 6.737 12.784-.627 22.818-5.394 29.81-14.166 5.312-6.665 8.706-15.2 10.248-25.828 6.14 3.703 10.716 8.588 13.319 14.59 4.591 10.58 4.862 27.963-9.654 42.478-12.742 12.743-28.068 18.258-49.711 18.414-24.02-.178-42.178-7.878-53.974-22.886C28.928 145.592 22.397 124.08 22.178 98c.22-26.08 6.75-47.592 19.41-63.95 11.795-15.008 29.954-22.708 53.974-22.886 24.22.18 42.59 7.936 54.6 23.05 5.886 7.41 10.282 16.672 13.136 27.518l15.698-4.16c-3.382-12.86-8.666-23.904-15.882-32.984C148.349 6.57 126.687-2.242 98.004-2.48h-.106C69.34-2.24 47.865 6.632 33.26 24.75 16.78 45.088 8.357 73.672 8.082 98l.004.473c.275 24.328 8.698 52.912 25.178 73.25 14.604 18.018 36.08 26.89 64.682 27.113h.106c25.593-.184 44.636-7.384 60.015-22.762 20.49-20.49 19.543-45.564 13.32-59.896-4.464-10.28-13.033-18.632-24.85-24.19zM98.27 135.42c-10.745.525-21.9-4.218-22.282-13.478-.284-6.896 4.885-14.59 24.2-15.7 2.121-.121 4.202-.183 6.245-.183 6.268 0 12.14.586 17.525 1.724-1.995 19.465-12.792 27.085-25.688 27.637z" fill="#000"/>
</svg>
