<?xml version="1.0" encoding="UTF-8"?>
<svg width="1200pt" height="1200pt" version="1.1" viewBox="0 0 1200 1200" xmlns="http://www.w3.org/2000/svg">
 <path d="m953.21 888.47c-34.406-17.156-75.938-31.734-122.76-43.031-10.969 33.234-24.141 63.844-39.047 91.219-25.219 46.172-55.688 83.156-89.719 108 85.125-19.359 161.21-62.578 220.82-122.21 10.734-10.828 21-22.172 30.703-33.984zm-454.82 156.14c-34.031-24.844-64.5-61.828-89.719-108-14.953-27.328-28.078-57.984-39.047-91.219-46.828 11.297-88.359 25.875-122.76 43.031 9.7031 11.859 19.922 23.203 30.75 33.984 59.578 59.672 135.66 102.84 220.78 122.21zm-266.48-175.4c-53.062-72.422-85.266-161.11-87.75-257.21h188.16c1.0312 75.844 11.812 147.37 30.188 210.56-49.875 12.094-94.125 27.984-130.6 46.641zm-111.89-268.92v-0.60937c0.09375-132.42 53.812-252.28 140.58-339.1 86.859-86.859 206.86-140.58 339.42-140.58 132.56 0 252.56 53.719 339.42 140.58 86.766 86.812 140.48 206.68 140.58 339.1v0.60937c-0.09375 132.47-53.812 252.32-140.58 339.14-86.859 86.859-206.86 140.58-339.42 140.58-132.56 0-252.56-53.719-339.42-140.58-86.766-86.812-140.48-206.68-140.58-339.14zm24.141-12.281h188.16c1.0312-75.844 11.812-147.37 30.188-210.56-49.875-12.141-94.125-27.984-130.6-46.641-53.062 72.422-85.266 161.11-87.75 257.21zm102.66-276.47c34.406 17.156 75.938 31.734 122.76 43.031 10.969-33.234 24.094-63.844 39.047-91.219 25.219-46.172 55.688-83.156 89.719-108-85.078 19.406-161.16 62.578-220.78 122.21-10.781 10.828-21.047 22.172-30.75 33.984zm454.82-156.14c34.031 24.844 64.5 61.828 89.719 107.95 14.953 27.328 28.078 57.984 39.047 91.219 46.828-11.297 88.359-25.875 122.76-43.031-9.7031-11.859-19.922-23.203-30.75-33.984-59.578-59.625-135.66-102.8-220.78-122.16zm266.48 175.4c-36.469 18.656-80.672 34.5-130.6 46.641 18.328 63.188 29.156 134.68 30.188 210.56h188.16c-2.4844-96.094-34.688-184.78-87.75-257.21zm87.75 281.21c-2.4844 96.094-34.688 184.78-87.75 257.21-36.469-18.656-80.672-34.5-130.6-46.641 18.328-63.188 29.156-134.72 30.188-210.56zm-443.86-467.44v235.6c69.141-0.75 134.34-7.7812 192.52-19.781l2.4844-0.51562c-10.359-30.984-22.688-59.531-36.609-85.031-41.484-75.938-97.172-124.6-158.39-130.26zm0 259.6v183.84h231.71c-1.0312-74.156-11.578-143.9-29.531-205.22l-4.875 1.0312c-59.906 12.328-126.74 19.594-197.29 20.344zm0 207.84v183.84c70.547 0.75 137.44 7.9688 197.29 20.344l4.875 1.0312c17.953-61.312 28.5-131.06 29.531-205.22zm0 207.84c69.141 0.75 134.34 7.7812 192.52 19.781l2.4844 0.51562c-10.359 30.984-22.688 59.531-36.609 85.031-41.484 75.891-97.125 124.6-158.34 130.22zm-24 235.6c-61.219-5.6719-116.91-54.375-158.34-130.22-13.969-25.5-26.25-54.047-36.609-85.031l2.4844-0.51562c58.172-12 123.37-19.031 192.52-19.781zm0-259.6v-183.84h-231.71c1.0312 74.156 11.625 143.9 29.531 205.22l4.875-1.0312c59.859-12.328 126.74-19.594 197.29-20.344zm0-207.84v-183.84c-70.547-0.75-137.44-7.9688-197.29-20.344l-4.875-1.0312c-17.953 61.312-28.5 131.06-29.531 205.22zm0-207.84v-235.6c-61.219 5.6719-116.91 54.375-158.34 130.22-13.922 25.5-26.25 54.047-36.609 85.031l2.4844 0.51563c58.125 12.047 123.32 19.078 192.47 19.828z" fill-rule="evenodd"/>
</svg>
